<svg xmlns="http://www.w3.org/2000/svg" width="113" height="40" fill="none" viewBox="0 0 113 40">
    <path fill="#000" d="M38.158 39.518a3.952 3.952 0 0 1-1.813-.404 3.392 3.392 0 0 1-1.374-1.362c-.468-.847-.666-2.013-.666-3.906 0-4.311-.331-7.09-.983-8.26-.258-.47-.469-.656-1.65-.678v14.544h-3.166V21.775h2.904c.758 0 1.634.025 2.46.324.97.358 1.71 1.009 2.26 1.995.955 1.735 1.366 4.654 1.366 9.752 0 1.54.167 2.176.308 2.436.01.022.022.044.035.065 0 0 .055.04.32.04.195 0 .195 0 .256-.134.21-.43.315-1.239.315-2.407 0-5.101.408-8.017 1.364-9.75.52-.97 1.273-1.642 2.24-1.997.85-.3 1.714-.324 2.46-.324h2.903v17.677H44.53V24.908c-1.104.02-1.361.181-1.651.684-.645 1.154-.955 3.856-.955 8.254 0 1.732-.189 2.884-.614 3.738a3.223 3.223 0 0 1-1.277 1.432 3.492 3.492 0 0 1-1.874.502zM111.52 11.152h-8.383V0h2.803v8.355h5.58v2.797zm-7.667-.716h6.951V9.071h-5.58V.716h-1.371v9.72zM108.118 40h-5.323V28.848h4.965c2.562 0 3.728 1.816 3.728 3.504a3.536 3.536 0 0 1-.509 1.833 3.51 3.51 0 0 1-.067 4.726c-.684.714-1.65 1.089-2.794 1.089zm-4.607-.716h4.607c2.079 0 3.027-1.432 3.027-2.773a2.718 2.718 0 0 0-.863-2.018l-.239-.216.19-.26c.355-.485.544-1.07.542-1.671 0-1.916-1.561-2.788-3.011-2.788h-4.249l-.004 9.726zm4.607-1.371h-3.235v-2.804h3.235c1.116 0 1.7.705 1.7 1.402s-.584 1.401-1.7 1.401zm-2.519-.717h2.519c.676 0 .984-.358.984-.685 0-.327-.308-.686-.984-.686h-2.519v1.371zm2.242-3.46h-2.958v-2.8h2.877c1.107 0 1.685.704 1.685 1.4 0 .884-.803 1.374-1.598 1.401l-.006-.002zm-2.242-.717h2.229c.622-.025.901-.358.901-.686 0-.328-.303-.685-.969-.685h-2.161v1.371zM33.538 7.189c0-4.402 2.865-7.189 7.34-7.189 4.474 0 7.033 2.429 7.033 6.579v.201h-3.342v-.249c0-2.126-1.266-3.542-3.694-3.542-2.502-.005-3.995 1.822-3.995 4.053v4.347c0 2.429 1.392 4.048 3.997 4.048 2.657 0 3.694-1.29 3.694-3.416v-.176h-4.297V8.91h7.639v2.935c0 4.225-2.454 6.577-7.033 6.577-4.358 0-7.342-2.479-7.342-7.185V7.19zM59.877.358l5.259 17.71h-3.441L60.63 14.12h-6.524l-1.062 3.947h-3.44L54.512.357h5.364zm-.029 10.727l-2.506-7.944h-.304l-2.149 7.944h4.96zM66.83 7.189c0-4.402 2.864-7.185 7.337-7.185 4.474 0 7.032 2.429 7.032 6.578v.202h-3.341v-.253c0-2.126-1.266-3.542-3.693-3.542-2.507 0-3.999 1.822-3.999 4.048v4.352c0 2.429 1.392 4.048 3.999 4.048 2.655 0 3.693-1.29 3.693-3.416v-.176H73.56V8.91h7.638v2.935c0 4.225-2.453 6.577-7.032 6.577-4.352 0-7.338-2.479-7.338-7.185V7.19zM97.381.358v3.036H86.975V7.62h9.701v3.037h-9.701v4.382h10.56v3.035h-13.9V.358h13.746zM13.758.358v3.036H3.35V7.62h9.7v3.037h-9.7v4.382H13.91v3.035H.012V.358h13.746zM64.166 21.791v3.035H53.76v4.224h9.699v3.037H53.76v4.377h10.56v3.042h-13.9V21.79h13.746zM97.688 21.932v3.036h-5.364v14.68h-3.342v-14.68h-5.36v-3.036h14.066zM22.487 32.367v-3.161H0v3.161h22.487zM81.16 21.933h-3.163v14.589l-.067-.01c-.761-.108-1.252-.562-1.593-1.47-.394-1.057-.513-2.52-.64-4.066l-.022-.276c-.16-2.015-.324-4.099-1.065-5.746-.44-.965-1.029-1.681-1.79-2.189-.733-.496-1.663-.777-2.764-.835h-3.297v17.576h3.162V24.909l.078.008c.377.03.738.158 1.05.371.325.258.587.636.815 1.175.414 1.094.514 2.591.62 4.177l.014.22c.103 1.79.238 4.019.98 5.69.44.963 1.014 1.666 1.756 2.149.716.47 1.608.74 2.626.802h3.3V21.934zM30.92.5h-3.162v14.588l-.068-.009c-.76-.107-1.252-.561-1.592-1.47-.395-1.058-.514-2.519-.64-4.066l-.023-.277c-.158-2.014-.323-4.097-1.064-5.745-.442-.965-1.03-1.682-1.79-2.188C21.84.835 20.91.555 19.812.5h-3.3v17.568h3.163V3.475l.08.009c.375.03.736.158 1.047.371.327.259.587.636.817 1.174.414 1.095.513 2.593.619 4.178l.014.22c.104 1.79.232 4.02.98 5.69.44.963 1.015 1.665 1.756 2.148.723.47 1.608.74 2.626.804h3.3L30.92.5zM112.76 25.629h-2.865l-.773-2.108h-3.581l-.773 2.108h-2.864l4.127-11.256h2.609l4.12 11.256zm-2.37-.716h1.345l-3.601-9.824h-1.61l-3.602 9.824h1.345l.773-2.108h4.576l.774 2.108zm-1.285-3.5h-3.554l1.777-4.848 1.777 4.848zm-2.529-.716h1.504l-.752-2.052-.752 2.052z"/>
</svg>
