<svg xmlns="http://www.w3.org/2000/svg" width="18" height="12" fill="none" viewBox="0 0 18 12">
    <path fill="#000" fill-rule="evenodd" d="M5.727 4.857v1.942h3.248c-.13.834-.981 2.445-3.248 2.445-1.955 0-3.55-1.603-3.55-3.578 0-1.975 1.595-3.578 3.55-3.578 1.113 0 1.858.47 2.283.875L9.565 1.48C8.566.56 7.274 0 5.727 0 2.561 0 0 2.534 0 5.666c0 3.133 2.56 5.666 5.727 5.666 3.306 0 5.498-2.299 5.498-5.536 0-.373-.04-.656-.09-.94H5.728zM18 4.857h-1.636v-1.62h-1.637v1.62h-1.636v1.619h1.636v1.618h1.637V6.476H18" clip-rule="evenodd"/>
</svg>
