<svg xmlns="http://www.w3.org/2000/svg" width="300" height="300" fill="none" viewBox="0 0 300 300">
    <path stroke="#CCC" stroke-miterlimit="10" d="M278.142.5v298.999M299.499.5v298.999M256.785.5v298.999M235.428.5v298.999M214.071.5v298.999M171.357.5v298.999M192.714.5v298.999"/>
    <path stroke="#CCC" stroke-miterlimit="10" stroke-width="2" d="M150 .5v298.999"/>
    <path stroke="#CCC" stroke-miterlimit="10" d="M128.643.5v298.999M107.285.5v298.999M64.571.5v298.999M85.928.5v298.999M43.214.5v298.999M21.857.5v298.999M.5.5v299M299.499 278.142H.5M299.499 299.499H.5M299.499 256.785H.5M299.499 235.428H.5M299.499 214.071H.5M299.499 171.357H.5M299.499 192.714H.5"/>
    <path stroke="#CCC" stroke-miterlimit="10" stroke-width="2" d="M299.499 150H.5"/>
    <path stroke="#CCC" stroke-miterlimit="10" d="M299.499 128.643H.5M299.499 107.285H.5M299.499 64.571H.5M299.499 85.928H.5M299.499 43.214H.5M299.499 21.857H.5M299.5.5H.5"/>
</svg>
