<svg xmlns="http://www.w3.org/2000/svg" xmlns:xlink="http://www.w3.org/1999/xlink" viewBox="0 0 63 31.5"><defs><style>.cls-1{fill:url(#linear-gradient);}.cls-2{fill:url(#linear-gradient-2);}.cls-3{fill:#e85e5d;}.cls-4{fill:#e9bbb0;}.cls-5{fill:url(#linear-gradient-3);}.cls-6{fill:url(#linear-gradient-4);}.cls-7{fill:#5a5c27;}.cls-8{fill:#634da0;}</style><linearGradient id="linear-gradient" x1="4.45" y1="23.9" x2="20.47" y2="7.88" gradientUnits="userSpaceOnUse"><stop offset="0" stop-color="#e9bbb0"/><stop offset="1" stop-color="#e85e5d"/></linearGradient><linearGradient id="linear-gradient-2" x1="17.32" y1="7.87" x2="33.35" y2="23.9" gradientUnits="userSpaceOnUse"><stop offset="0" stop-color="#e85e5d"/><stop offset="1" stop-color="#634da0"/></linearGradient><linearGradient id="linear-gradient-3" x1="29.65" y1="23.9" x2="45.67" y2="7.88" gradientUnits="userSpaceOnUse"><stop offset="0" stop-color="#634da0"/><stop offset="1" stop-color="#5a5c27"/></linearGradient><linearGradient id="linear-gradient-4" x1="42.52" y1="7.88" x2="58.55" y2="23.9" gradientUnits="userSpaceOnUse"><stop offset="0" stop-color="#5a5c27"/><stop offset="1" stop-color="#e9bbb0"/></linearGradient></defs><title>meetr_logo</title><g id="Layer_2" data-name="Layer 2"><g id="Layer_1-2" data-name="Layer 1"><polygon class="cls-1" points="10.48 29.93 1.57 21.02 14.45 1.84 23.36 10.76 10.48 29.93"/><polygon class="cls-2" points="27.32 29.93 36.23 21.02 23.36 1.84 14.45 10.76 27.32 29.93"/><circle class="cls-3" cx="18.9" cy="6.3" r="6.3"/><circle class="cls-4" cx="6.3" cy="25.2" r="6.3"/><polygon class="cls-5" points="35.69 29.93 26.77 21.02 39.65 1.84 48.55 10.76 35.69 29.93"/><polygon class="cls-6" points="52.52 29.93 61.42 21.02 48.55 1.84 39.65 10.76 52.52 29.93"/><circle class="cls-7" cx="44.1" cy="6.3" r="6.3"/><circle class="cls-8" cx="31.5" cy="25.2" r="6.3"/><circle class="cls-4" cx="56.7" cy="25.2" r="6.3"/></g></g></svg>