<svg xmlns="http://www.w3.org/2000/svg" width="30" height="30" fill="none" viewBox="0 0 30 30">
    <circle cx="15" cy="15" r="15" fill="url(#a)"/>
    <mask id="b" width="26" height="25" x="2" y="5" maskUnits="userSpaceOnUse">
        <path fill="#fff" fill-rule="evenodd" d="M27.688 28.69c.327.619-.137 1.31-.837 1.31H3.448c-.7 0-1.163-.691-.836-1.31.837-1.584 2.536-4.152 5.095-5.053 1.754-.633 2.948-1.275 3.582-1.926.634-.651.95-1.535.95-2.651 0-.41-.204-.865-.615-1.368-.41-.502-.708-1.181-.895-2.037-.037-.223-.121-.39-.252-.502a1.055 1.055 0 0 0-.391-.224c-.131-.037-.607-1.153-.644-1.674 0-.298.047-.54.14-.726.093-.186.177-.297.252-.335l.112-.111c-.15-.93-.261-1.75-.336-2.456-.075-1.005.308-2.047 1.147-3.126C11.597 5.421 13.061 5 15.15 5s3.562.422 4.42 1.501c.858 1.08 1.231 2.121 1.12 3.126l-.337 2.456c.336.149.504.54.504 1.172-.037.52-.513 1.637-.643 1.674-.131.038-.262.112-.392.224-.13.111-.215.279-.252.502-.15.893-.438 1.582-.867 2.065-.43.484-.644.93-.644 1.34 0 1.116.327 2 .98 2.651.652.651 1.837 1.293 3.553 1.926 2.56.901 4.258 3.469 5.096 5.053z" clip-rule="evenodd"/>
    </mask>
    <g mask="url(#b)">
        <circle cx="15" cy="15" r="15" fill="#fff"/>
    </g>
    <defs>
        <linearGradient id="a" x1="15" x2="15" y2="30" gradientUnits="userSpaceOnUse">
            <stop stop-color="#E9BBB0"/>
            <stop offset=".495" stop-color="#E85E5D"/>
            <stop offset="1" stop-color="#634DA0"/>
        </linearGradient>
    </defs>
</svg>
