<svg xmlns="http://www.w3.org/2000/svg" width="78" height="81" fill="none" viewBox="0 0 78 81">
    <path stroke="#000" stroke-miterlimit="10" d="M60.423 20.423H40.5V.5"/>
    <path fill="#000" stroke="#000" stroke-miterlimit="10" d="M12.913 40.5v6.743H12.3V31.305h4.904c1.686 0 2.912.46 3.832 1.226.92.766 1.38 1.992 1.38 3.371 0 1.38-.46 2.606-1.38 3.372-.92.766-2.146 1.226-3.678 1.226h-4.445zm0-.613h4.291c1.38 0 2.606-.306 3.372-1.073.766-.613 1.226-1.685 1.226-2.912 0-1.226-.46-2.298-1.226-2.912-.766-.766-1.839-1.072-3.372-1.072h-4.29v7.97zM25.632 47.09V31.305h4.445c1.226 0 2.299.306 3.371.92.92.612 1.84 1.379 2.3 2.451.612 1.073.919 2.146.919 3.525v1.993c0 1.379-.307 2.452-.767 3.524a7.094 7.094 0 0 1-2.298 2.453c-.92.613-2.146.92-3.372.92h-4.598zm.613-15.172v14.56h3.832c1.073 0 2.145-.307 3.065-.767.92-.613 1.686-1.226 2.145-2.299.46-.92.767-1.992.767-3.218V38.2a7.123 7.123 0 0 0-.767-3.218c-.46-.92-1.225-1.686-2.145-2.299-.92-.613-1.84-.766-2.912-.766h-3.985zM48.928 39.427h-8.123v7.816h-.613V31.305H50v.613h-9.195v6.896h8.123v.613z"/>
    <path stroke="#000" stroke-miterlimit="10" d="M60.423 80.5c9.226 0 16.705-7.48 16.705-16.705 0-9.226-7.48-16.705-16.705-16.705-9.226 0-16.705 7.48-16.705 16.705 0 9.226 7.479 16.705 16.705 16.705zM60.422 73.757V53.833"/>
    <path stroke="#000" stroke-miterlimit="10" d="M50.462 63.795l9.961 9.962 10.115-9.962M50.462 73.757h20.076"/>
    <path stroke="#000" stroke-miterlimit="10" d="M43.872 63.795c0-9.195 7.51-16.705 16.705-16.705V20.423L40.653.5H.5v80h59.923c-9.195 0-16.551-7.51-16.551-16.705z"/>
</svg>
