<svg xmlns="http://www.w3.org/2000/svg" width="254" height="200" fill="none" viewBox="0 0 254 200">
    <path fill="#fff" stroke="#000" stroke-miterlimit="10" stroke-width="2" d="M138.574 198.565c-95.928 0-113.932-71.891-113.932-71.891s53.6-95.764 83.697-95.764c13.331 0 24.051 7.271 30.235 17.973 6.184-10.702 16.629-17.973 29.96-17.973 29.961 0 83.972 95.764 83.972 95.764s-18.004 71.891-113.932 71.891z"/>
    <path fill="#fff" stroke="#000" stroke-miterlimit="10" stroke-width="2" d="M252.506 126.674s-47.964 41.845-113.932 41.845-113.932-41.845-113.932-41.845 64.181-59.818 113.932-59.818c49.751 0 113.932 59.818 113.932 59.818z"/>
    <path fill="#fff" d="M78.647 156.72c24.05-33.75 59.92-3.704 59.92-3.704s36.008-30.046 59.921 3.704"/>
    <path stroke="#000" stroke-miterlimit="10" stroke-width="2" d="M78.647 156.72c24.05-33.75 59.92-3.704 59.92-3.704s36.008-30.046 59.921 3.704"/>
    <path fill="#fff" stroke="#000" stroke-miterlimit="10" stroke-width="2" d="M132.521 96.764V67.13c-13.744 1.235-28.174 6.448-41.917 13.308v16.326h41.917zM186.534 96.765v-16.19c-13.744-6.86-28.312-12.073-41.917-13.308v29.635h41.917v-.137z"/>
    <path fill="#fff" stroke="#000" stroke-miterlimit="10" stroke-width="2" d="M1.001 1.001v95.9H59.96l31.472 31.419V96.902h20.889V1H1.001z"/>
    <path fill="#fff" stroke="#000" stroke-miterlimit="10" stroke-width="2" d="M38.107 25.696H25.738v30.87h12.37v-30.87zM38.107 62.74H25.738v12.348h12.37V62.74zM62.842 25.696H50.473v30.87h12.37v-30.87zM62.842 62.74H50.473v12.348h12.37V62.74zM87.585 25.696H75.217v30.87h12.368v-30.87zM87.585 62.74H75.217v12.348h12.368V62.74z"/>
</svg>
