<svg xmlns="http://www.w3.org/2000/svg" width="127" height="100" fill="none" viewBox="0 0 127 100">
    <path fill="#fff" stroke="#000" stroke-miterlimit="10" d="M69.286 99.28c-47.962 0-56.963-35.944-56.963-35.944s26.798-47.88 41.846-47.88c6.665 0 12.025 3.636 15.117 8.987 3.092-5.35 8.314-8.986 14.98-8.986 14.979 0 41.983 47.88 41.983 47.88S117.248 99.28 69.286 99.28z"/>
    <path fill="#fff" stroke="#000" stroke-miterlimit="10" d="M126.249 63.336s-23.981 20.922-56.963 20.922-56.963-20.922-56.963-20.922S44.412 33.43 69.286 33.43c24.874 0 56.963 29.907 56.963 29.907z"/>
    <path fill="#fff" d="M39.324 78.359c12.025-16.875 29.959-1.852 29.959-1.852s18.002-15.023 29.959 1.852"/>
    <path stroke="#000" stroke-miterlimit="10" d="M39.324 78.359c12.025-16.875 29.959-1.852 29.959-1.852s18.002-15.023 29.959 1.852"/>
    <path fill="#fff" stroke="#000" stroke-miterlimit="10" d="M66.26 48.383V33.566c-6.872.617-14.086 3.224-20.958 6.654v8.163H66.26zM93.265 48.383v-8.095c-6.871-3.43-14.155-6.036-20.957-6.653V48.45h20.957v-.068z"/>
    <path fill="#fff" stroke="#000" stroke-miterlimit="10" d="M.503.503v47.948h29.478L45.716 64.16V48.451H56.16V.503H.504z"/>
    <path fill="#fff" stroke="#000" stroke-miterlimit="10" d="M19.055 12.85h-6.184v15.434h6.184V12.85zM19.055 31.371h-6.184v6.174h6.184V31.37zM31.422 12.85h-6.184v15.434h6.184V12.85zM31.422 31.371h-6.184v6.174h6.184V31.37zM43.793 12.85H37.61v15.434h6.184V12.85zM43.793 31.371H37.61v6.174h6.184V31.37z"/>
</svg>
