<svg xmlns="http://www.w3.org/2000/svg" width="202" height="230" fill="none" viewBox="0 0 202 230">
    <path fill="#fff" stroke="#000" stroke-miterlimit="10" stroke-width="2" d="M182.818 28.273H1V210.09h181.818V28.273z"/>
    <path fill="#fff" stroke="#000" stroke-miterlimit="10" stroke-width="2" d="M164.636 46.454H19.182V191.91h145.454V46.454z"/>
    <path fill="#fff" stroke="#000" stroke-miterlimit="10" stroke-width="2" d="M110.092 19.182C110.092 9.182 101.91 1 91.91 1c-10 0-18.182 8.182-18.182 18.182H46.455v27.273h90.909V19.182h-27.272z"/>
    <path fill="#fff" stroke="#000" stroke-miterlimit="10" stroke-width="2" d="M91.91 28.273a9.09 9.09 0 0 0 9.09-9.091 9.09 9.09 0 1 0-18.181 0 9.09 9.09 0 0 0 9.09 9.09zM46.454 82.818a9.091 9.091 0 1 0 0-18.182 9.091 9.091 0 0 0 0 18.182zM46.454 128.273a9.09 9.09 0 0 0 9.091-9.091 9.09 9.09 0 1 0-18.182 0 9.09 9.09 0 0 0 9.091 9.091zM46.454 173.727a9.09 9.09 0 1 0 0-18.182 9.09 9.09 0 0 0 0 18.182z"/>
    <path stroke="#000" stroke-miterlimit="10" stroke-width="2" d="M73.727 73.727h72.727M73.727 119.182h72.727M73.727 164.636h27.272"/>
    <path fill="#fff" stroke="#000" stroke-miterlimit="10" stroke-width="2" d="M86.252 155.647v-53.536c0-8.485 6.87-15.252 15.253-15.252 8.384 0 15.253 6.868 15.253 15.252v49.697c0-7.07 6.262-14.04 14.04-14.04s14.04 6.97 14.04 14.04c0-7.07 6.263-14.04 14.041-14.04 7.778 0 14.04 6.97 14.04 14.04 0-7.07 6.263-14.04 14.041-14.04 7.777 0 14.04 6.97 14.04 14.04v33.031c0 24.04-19.495 43.535-43.535 43.535h-27.778c-24.041 0-43.536-19.495-43.536-43.535v-29.192h.102z"/>
    <path fill="#fff" stroke="#000" stroke-miterlimit="10" stroke-width="2" d="M109.182 109.687H93.93v-8.586c0-3.636 3.03-6.666 6.666-6.666h1.92c3.636 0 6.666 3.03 6.666 6.666v8.586z"/>
    <path stroke="#000" stroke-miterlimit="10" stroke-width="2" d="M93.93 140.293h15.252M97.766 136.455h7.576M97.766 144.131h7.576"/>
</svg>
